#N canvas -7 0 1020 686 10;
#X obj 113 67 key;
#X obj 113 110 select 118;
#X msg 113 155 1;
#X obj 187 109 select 118;
#X obj 187 66 keyup;
#X msg 187 154 0;
#X obj 284 66 key;
#X msg 284 154 1;
#X obj 358 65 keyup;
#X msg 358 153 0;
#X obj 452 63 key;
#X msg 452 151 1;
#X obj 526 62 keyup;
#X msg 526 150 0;
#X obj 626 60 key;
#X msg 626 148 1;
#X obj 700 59 keyup;
#X msg 700 147 0;
#X text 125 300 v;
#X text 287 297 c;
#X text 457 294 x;
#X text 615 292 z;
#X obj 284 109 select 99;
#X obj 358 108 select 99;
#X obj 452 106 select 120;
#X obj 526 105 select 120;
#X obj 626 103 select 122;
#X obj 700 102 select 122;
#X obj 145 202 s v;
#X obj 319 210 s c;
#X obj 490 209 s x;
#X obj 662 206 s z;
#X connect 0 0 1 0;
#X connect 1 0 2 0;
#X connect 2 0 28 0;
#X connect 3 0 5 0;
#X connect 4 0 3 0;
#X connect 5 0 28 0;
#X connect 6 0 22 0;
#X connect 7 0 29 0;
#X connect 8 0 23 0;
#X connect 9 0 29 0;
#X connect 10 0 24 0;
#X connect 11 0 30 0;
#X connect 12 0 25 0;
#X connect 13 0 30 0;
#X connect 14 0 26 0;
#X connect 15 0 31 0;
#X connect 16 0 27 0;
#X connect 17 0 31 0;
#X connect 22 0 7 0;
#X connect 23 0 9 0;
#X connect 24 0 11 0;
#X connect 25 0 13 0;
#X connect 26 0 15 0;
#X connect 27 0 17 0;
