#N canvas 696 81 450 300 10;
#X floatatom 168 86 5 0 0 0 - - -;
#X floatatom 207 86 5 0 0 0 - - -;
#X obj 168 120 bng 15 250 50 0 empty empty empty 17 7 0 10 -262144
-1 -1;
#X floatatom 247 86 5 0 0 0 - - -;
#X floatatom 286 86 5 0 0 0 - - -;
#X obj 247 120 bng 15 250 50 0 empty empty empty 17 7 0 10 -262144
-1 -1;
#X floatatom 89 85 5 0 0 0 - - -;
#X floatatom 128 85 5 0 0 0 - - -;
#X obj 89 119 bng 15 250 50 0 empty empty empty 17 7 0 10 -262144 -1
-1;
#X obj 89 48 ctlin 1;
#X obj 89 151 s c1;
#X floatatom 323 87 5 0 0 0 - - -;
#X floatatom 362 87 5 0 0 0 - - -;
#X obj 323 121 bng 15 250 50 0 empty empty empty 17 7 0 10 -262144
-1 -1;
#X obj 168 49 ctlin 2;
#X obj 247 49 ctlin 3;
#X obj 323 50 ctlin 4;
#X obj 168 152 s c2;
#X obj 247 152 s c3;
#X obj 323 153 s c4;
#X connect 0 0 2 0;
#X connect 2 0 17 0;
#X connect 3 0 5 0;
#X connect 5 0 18 0;
#X connect 6 0 8 0;
#X connect 8 0 10 0;
#X connect 9 0 6 0;
#X connect 9 1 7 0;
#X connect 11 0 13 0;
#X connect 13 0 19 0;
#X connect 14 0 0 0;
#X connect 14 1 1 0;
#X connect 15 0 3 0;
#X connect 15 1 4 0;
#X connect 16 0 11 0;
#X connect 16 1 12 0;
